<svg width="68" height="39" viewBox="0 0 68 39" fill="none" xmlns="http://www.w3.org/2000/svg">
<path d="M67.9678 2.95992C61.8253 13.5069 55.6835 24.0532 49.5426 34.5987C48.6224 36.1837 47.4376 36.6884 46.0734 36.138C45.5081 35.8941 45.045 35.4642 44.762 34.9207C38.7438 24.5929 32.7255 14.2652 26.7073 3.93743C25.787 2.3387 26.1827 1.24701 28.014 0H38.585C38.8772 0.456779 38.9324 0.977506 38.9876 1.5028C39.1751 3.49908 40.099 5.35618 41.582 6.71736C43.0647 8.07855 45.0017 8.84786 47.0212 8.87748C51.1438 8.91174 54.6498 5.79423 55.1859 1.62156C55.2572 1.06658 55.2641 0.497889 55.577 0H65.9111C67.0199 0.383695 67.6112 1.23102 67.9816 2.28389L67.9678 2.95992Z" fill="#FDF4F2"/>
<path d="M0 35.752C2.67172 31.207 5.34267 26.6605 8.01283 22.1126C11.4622 16.2095 14.9045 10.3003 18.34 4.385C19.6974 2.06229 21.8921 2.04174 23.2379 4.34618C29.1688 14.5323 35.0513 24.723 41.0465 34.859C42.2474 36.887 41.0465 39.1846 38.5987 38.9882C35.822 38.7598 33.0153 38.9083 30.2224 38.954C29.316 38.97 28.9709 38.7256 28.8881 37.7686C28.5269 33.5526 25.3889 30.4602 21.3584 30.2318C17.1207 30.0034 13.6561 32.5956 12.752 36.6952C12.7267 36.8071 12.6945 36.9236 12.6761 37.0286C12.3701 38.9288 12.3701 38.9288 10.456 38.9288C8.04504 38.9288 5.62486 38.8443 3.22537 38.9608C1.75533 39.0293 0.726976 38.5566 0.00460112 37.3347L0 35.752Z" fill="#FDF4F2"/>
</svg>
