<svg width="68" height="40" viewBox="0 0 68 40" fill="none" xmlns="http://www.w3.org/2000/svg">
<path d="M67.977 3.45992C61.8345 14.0069 55.6927 24.5532 49.5518 35.0987C48.6316 36.6837 47.4468 37.1884 46.0826 36.638C45.5173 36.3941 45.0542 35.9642 44.7713 35.4207C38.753 25.0929 32.7347 14.7652 26.7165 4.43743C25.7963 2.8387 26.1919 1.74701 28.0232 0.5H38.5943C38.8864 0.956779 38.9416 1.47751 38.9969 2.0028C39.1843 3.99908 40.1082 5.85618 41.5912 7.21736C43.0739 8.57856 45.011 9.34786 47.0304 9.37748C51.153 9.41174 54.659 6.29423 55.1951 2.12156C55.2664 1.56658 55.2733 0.997889 55.5862 0.5H65.9203C67.0291 0.883695 67.6204 1.73102 67.9908 2.78389L67.977 3.45992Z" fill="#020B0D"/>
<path d="M0.00921631 36.252C2.68094 31.707 5.35189 27.1605 8.02205 22.6126C11.4714 16.7095 14.9138 10.8003 18.3493 4.885C19.7066 2.56229 21.9013 2.54174 23.2471 4.84618C29.178 15.0323 35.0605 25.223 41.0558 35.359C42.2566 37.387 41.0558 39.6846 38.608 39.4882C35.8312 39.2598 33.0245 39.4083 30.2316 39.454C29.3252 39.47 28.9801 39.2256 28.8973 38.2686C28.5361 34.0526 25.3982 30.9602 21.3676 30.7318C17.13 30.5034 13.6653 33.0956 12.7612 37.1952C12.7359 37.3071 12.7037 37.4236 12.6853 37.5286C12.3793 39.4288 12.3793 39.4288 10.4652 39.4288C8.05426 39.4288 5.63407 39.3443 3.23459 39.4608C1.76454 39.5293 0.736193 39.0566 0.0138174 37.8347L0.00921631 36.252Z" fill="#020B0D"/>
</svg>
